<?xml version="1.0" encoding="UTF-8" standalone="no"?>
<svg
   xmlns:dc="http://purl.org/dc/elements/1.1/"
   xmlns:cc="http://creativecommons.org/ns#"
   xmlns:rdf="http://www.w3.org/1999/02/22-rdf-syntax-ns#"
   xmlns:svg="http://www.w3.org/2000/svg"
   xmlns="http://www.w3.org/2000/svg"
   xmlns:sodipodi="http://sodipodi.sourceforge.net/DTD/sodipodi-0.dtd"
   xmlns:inkscape="http://www.inkscape.org/namespaces/inkscape"
   style="stroke-linejoin:round; stroke:black; stroke-width:0.5pt; text-anchor:middle; fill:none"
   font-family="Helvetica, Arial, FreeSans, Sans, sans, sans-serif"
   height="400px"
   width="400px"
   version="1.1"
   viewBox="0 0 100 100"
   id="svg2"
   inkscape:version="0.47 r22583"
   sodipodi:docname="action-of-map-postprocess.svg"
   inkscape:export-filename="/Users/scott/Development/projects/kasner/figures/routines/action-of-map-postprocess.png"
   inkscape:export-xdpi="149.50166"
   inkscape:export-ydpi="149.50166">
  <metadata
     id="metadata43">
    <rdf:RDF>
      <cc:Work
         rdf:about="">
        <dc:format>image/svg+xml</dc:format>
        <dc:type
           rdf:resource="http://purl.org/dc/dcmitype/StillImage" />
        <dc:title></dc:title>
      </cc:Work>
    </rdf:RDF>
  </metadata>
  <defs
     id="defs41">
    <marker
       inkscape:stockid="EmptyTriangleOutL"
       orient="auto"
       refY="0.0"
       refX="0.0"
       id="EmptyTriangleOutL"
       style="overflow:visible">
      <path
         id="path3901"
         d="M 5.77,0.0 L -2.88,5.0 L -2.88,-5.0 L 5.77,0.0 z "
         style="fill-rule:evenodd;fill:#FFFFFF;stroke:#000000;stroke-width:1.0pt;marker-start:none"
         transform="scale(0.8) translate(-6,0)" />
    </marker>
    <marker
       inkscape:stockid="Arrow1Lend"
       orient="auto"
       refY="0.0"
       refX="0.0"
       id="Arrow1Lend"
       style="overflow:visible;">
      <path
         id="path3743"
         d="M 0.0,0.0 L 5.0,-5.0 L -12.5,0.0 L 5.0,5.0 L 0.0,0.0 z "
         style="fill-rule:evenodd;stroke:#000000;stroke-width:1.0pt;marker-start:none;"
         transform="scale(0.8) rotate(180) translate(12.5,0)" />
    </marker>
    <marker
       inkscape:stockid="Arrow2Lend"
       orient="auto"
       refY="0.0"
       refX="0.0"
       id="Arrow2Lend"
       style="overflow:visible;">
      <path
         id="path3761"
         style="font-size:12.0;fill-rule:evenodd;stroke-width:0.62500000;stroke-linejoin:round;"
         d="M 8.7185878,4.0337352 L -2.2072895,0.016013256 L 8.7185884,-4.0017078 C 6.9730900,-1.6296469 6.9831476,1.6157441 8.7185878,4.0337352 z "
         transform="scale(1.1) rotate(180) translate(1,0)" />
    </marker>
    <inkscape:perspective
       sodipodi:type="inkscape:persp3d"
       inkscape:vp_x="0 : 200 : 1"
       inkscape:vp_y="0 : 1000 : 0"
       inkscape:vp_z="400 : 200 : 1"
       inkscape:persp3d-origin="200 : 133.33333 : 1"
       id="perspective45" />
    <defs
       id="defs28">
      <symbol
         overflow="visible"
         viewBox="0 0 1 1"
         id="circular_dot"
         style="overflow:visible">
        <circle
           cx="0"
           r="1"
           cy="0"
           id="circle31"
           sodipodi:cx="0"
           sodipodi:cy="0"
           sodipodi:rx="1"
           sodipodi:ry="1"
           style="fill:#000000;stroke:none" />
      </symbol>
    </defs>
  </defs>
  <sodipodi:namedview
     pagecolor="#ffffff"
     bordercolor="#666666"
     borderopacity="1"
     objecttolerance="10"
     gridtolerance="10"
     guidetolerance="10"
     inkscape:pageopacity="0"
     inkscape:pageshadow="2"
     inkscape:window-width="1920"
     inkscape:window-height="1152"
     id="namedview39"
     showgrid="true"
     inkscape:zoom="1.4142136"
     inkscape:cx="165.98198"
     inkscape:cy="200"
     inkscape:window-x="0"
     inkscape:window-y="0"
     inkscape:window-maximized="0"
     inkscape:current-layer="svg2">
    <inkscape:grid
       type="xygrid"
       id="grid3623" />
  </sodipodi:namedview>
  <path
     style="stroke-width:0.25;stroke-miterlimit:4;stroke-dasharray:none"
     id="path6"
     d="m 25,50 0.2071,3.211 0.4872,2.6399 0.9399,3.0394 1.2148,2.6999 1.3943,2.344 2.388,3.0243 1.75,1.7181 1.6195,1.324 2.1737,1.4588 2.3084,1.2208 2.9894,1.1595 2.6952,0.6888 2.9752,0.4024 3.2785,0.0287 3.0482,-0.3624 3.823,-1.0125 2.0613,-0.8295 2.6184,-1.3841 2.8161,-1.9873 2.1,-1.9192 2.3933,-2.8474 1.8669,-3.022 1.1793,-2.6052 1.0857,-3.606 0.3883,-2.2413 0.1884,-2.4385 -0.0136,-1.7868 -0.3433,-3.1844 -0.7362,-3.0769 -0.8783,-2.41 -1.3319,-2.6832 -0.7739,-1.2615 -2.2436,-2.9284 -1.6402,-1.6762 -1.4358,-1.2378 -2.4804,-1.744 -1.9925,-1.1055 -2.4681,-1.0645 -2.6918,-0.824 -1.6316,-0.3434 -2.2133,-0.2879 -2.8043,-0.0802 -3.2593,0.3042 -2.3965,0.5047 -2.1949,0.6853 -3.53,1.6027 -1.895,1.1573 -2.4202,1.8539 -1.688,1.6087 -2.4111,2.9413 -1.6127,2.6384 -1.4217,3.2148 -0.6057,1.9184 -0.5498,2.5341 L 25.033,48.7152 25,50 z" />
  <path
     style="stroke-width:0.25;stroke-miterlimit:4;stroke-dasharray:none;stroke-linejoin:round"
     id="path8"
     d="M 100,50 25,6.69873" />
  <path
     style="stroke-width:0.25;stroke-miterlimit:4;stroke-dasharray:none;stroke-linejoin:round"
     id="path10"
     d="M 25,6.69873 25,93.3013" />
  <path
     style="stroke-width:0.25;stroke-miterlimit:4;stroke-dasharray:none;stroke-linejoin:round"
     id="path12"
     d="M 25,93.3013 100,50" />
  <path
     style="stroke-width:0.25;stroke-miterlimit:4;stroke-dasharray:0.25,0.5;stroke-dashoffset:0"
     id="path14"
     d="M 100,50 74.0881,43.3096" />
  <path
     style="stroke-width:0.25;stroke-miterlimit:4;stroke-dasharray:0.25,0.5;stroke-dashoffset:0"
     id="path18"
     d="M 25,6.69873 32.1619,32.4843" />
  <path
     style="stroke-width:0.25;stroke-miterlimit:4;stroke-dasharray:0.25,0.5;stroke-dashoffset:0"
     id="path22"
     d="M 25,93.3013 43.75,74.2062" />
  <path
     sodipodi:type="arc"
     style="fill:#aa0000;fill-opacity:1;stroke:none;stroke-width:1.18728738;stroke-miterlimit:4;stroke-dasharray:none"
     id="path3692"
     sodipodi:cx="-90"
     sodipodi:cy="122.5"
     sodipodi:rx="5"
     sodipodi:ry="7.5"
     d="m -85,122.5 a 5,7.5 0 1 1 -10,0 5,7.5 0 1 1 10,0 z"
     transform="matrix(0.2578872,0,0,0.1719248,97.087534,22.459276)" />
  <path
     transform="matrix(0.2578872,0,0,0.1719248,55.161284,11.634026)"
     d="m -85,122.5 a 5,7.5 0 1 1 -10,0 5,7.5 0 1 1 10,0 z"
     sodipodi:ry="7.5"
     sodipodi:rx="5"
     sodipodi:cy="122.5"
     sodipodi:cx="-90"
     id="path3694"
     style="fill:#008000;fill-opacity:1;stroke:none;stroke-width:1.18728738;stroke-miterlimit:4;stroke-dasharray:none"
     sodipodi:type="arc" />
  <path
     style="stroke-width:0.25000000000000000;stroke-miterlimit:4;stroke-dasharray:none;marker-end:url(#Arrow1Lend);fill:none;fill-opacity:1;marker-mid:none"
     id="path16"
     d="M 74.0881,43.3096 32.1619,32.4843" />
  <path
     sodipodi:type="arc"
     style="fill:#0000ff;fill-opacity:1;stroke:none;stroke-width:1.18728738;stroke-miterlimit:4;stroke-dasharray:none"
     id="path3696"
     sodipodi:cx="-90"
     sodipodi:cy="122.5"
     sodipodi:rx="5"
     sodipodi:ry="7.5"
     d="m -85,122.5 a 5,7.5 0 1 1 -10,0 5,7.5 0 1 1 10,0 z"
     transform="matrix(0.2578872,0,0,0.1719248,66.749284,53.356026)" />
  <path
     style="stroke-width:0.25000000000000000;stroke-miterlimit:4;stroke-dasharray:none;marker-end:url(#Arrow1Lend)"
     id="path24"
     d="M 43.75,74.2062 74.0881,43.3096" />
  <path
     style="stroke-width:0.25000000000000000;stroke-miterlimit:4;stroke-dasharray:none;marker-end:url(#Arrow1Lend)"
     id="path20"
     d="M 32.1619,32.4843 43.75,74.2061" />
</svg>
