<?xml version="1.0" standalone="no"?>
<!DOCTYPE svg PUBLIC "-//W3C//DTD SVG 1.1//EN" "http://www.w3.org/Graphics/SVG/1.1/DTD/svg11.dtd">

<svg style="stroke-linejoin:round; stroke:black; stroke-width:0.5pt; text-anchor:middle; fill:none" xmlns="http://www.w3.org/2000/svg" font-family="Helvetica, Arial, FreeSans, Sans, sans, sans-serif" height="400px" width="400px" version="1.1" xmlns:xlink="http://www.w3.org/1999/xlink" viewBox="0 0 100 100">

<g>

<path d="M25 50L25.2071 53.211L25.6943 55.8509L26.6342 58.8903L27.849 61.5902L29.2433 63.9342L31.6313 66.9585L33.3813 68.6766L35.0008 70.0006L37.1745 71.4594L39.4829 72.6802L42.4723 73.8397L45.1675 74.5285L48.1427 74.9309L51.4212 74.9596L54.4694 74.5972L58.2924 73.5847L60.3537 72.7552L62.9721 71.3711L65.7882 69.3838L67.8882 67.4646L70.2815 64.6172L72.1484 61.5952L73.3277 58.99L74.4134 55.384L74.8017 53.1427L74.9901 50.7042L74.9765 48.9174L74.6332 45.733L73.897 42.6561L73.0187 40.2461L71.6868 37.5629L70.9129 36.3014L68.6693 33.373L67.0291 31.6968L65.5933 30.459L63.1129 28.715L61.1204 27.6095L58.6523 26.545L55.9605 25.721L54.3289 25.3776L52.1156 25.0897L49.3113 25.0095L46.052 25.3137L43.6555 25.8184L41.4606 26.5037L37.9306 28.1064L36.0356 29.2637L33.6154 31.1176L31.9274 32.7263L29.5163 35.6676L27.9036 38.306L26.4819 41.5208L25.8762 43.4392L25.3264 45.9733L25.033 48.7152L25 50Z" />

<path d="M100 50L25 6.69873" />

<path d="M25 6.69873L25 93.3013" />

<path d="M25 93.3013L100 50" />

<path d="M100 50L74.0881 43.3096" />

<path d="M74.0881 43.3096L32.1619 32.4843" />

<path d="M25 6.69873L32.1619 32.4843" />

<path d="M32.1619 32.4843L43.75 74.2061" />

<path d="M25 93.3013L43.75 74.2062" />

<path d="M43.75 74.2062L74.0881 43.3096" />

<g>

<defs>

<symbol overflow="visible" viewBox="0 0 1 1" id="circular_dot">

<circle stroke="none" cx="0" r="1" cy="0" fill="black" />

</symbol>

</defs>

<use y="43.309575" x="74.088125" height="1.5" xlink:href="#circular_dot" width="1.5" />

<use y="74.20615" x="43.75" height="1.5" xlink:href="#circular_dot" width="1.5" />

<use y="32.484275" x="32.161875" height="1.5" xlink:href="#circular_dot" width="1.5" />

</g>

</g>

</svg>

