<?xml version="1.0" standalone="no"?>
<!DOCTYPE svg PUBLIC "-//W3C//DTD SVG 1.1//EN" "http://www.w3.org/Graphics/SVG/1.1/DTD/svg11.dtd">

<svg style="stroke-linejoin:round; stroke:black; stroke-width:0.5pt; text-anchor:middle; fill:none" xmlns="http://www.w3.org/2000/svg" font-family="Helvetica, Arial, FreeSans, Sans, sans, sans-serif" height="400px" width="400px" version="1.1" xmlns:xlink="http://www.w3.org/1999/xlink" viewBox="0 0 100 100">

<g>

<path d="M25 50L25.2179 53.2932L25.5348 55.1436L26.2479 57.7999L27.4941 60.8851L28.646 63.0003L30.2437 65.3196L32.3732 67.7284L34.9455 69.959L37.5653 71.6882L40.1202 72.965L43.3527 74.1001L46.1655 74.7042L48.6353 74.9627L51.5214 74.9537L54.5327 74.5857L57.4203 73.8734L59.4198 73.1574L62.854 71.4424L66.1883 69.0509L67.9794 67.3707L70.0746 64.9L71.523 62.7185L73.3514 58.9282L74.3791 55.5371L74.773 53.3612L74.9811 50.9731L74.88 47.5539L74.4511 44.7901L73.6928 42.0219L72.3008 38.7007L70.6654 35.9308L69.6787 34.5809L68.1319 32.7886L65.6686 30.5194L62.9071 28.5896L59.4476 26.8539L55.9016 25.7066L53.4296 25.2364L51.0978 25.0241L48.6996 25.0338L45.5104 25.4064L43.0692 25.9799L40.8246 26.7446L38.2235 27.9475L35.3284 29.7579L33.5936 31.1365L31.6259 33.0474L29.6868 35.427L27.648 38.8023L26.4854 41.5111L25.5696 44.6936L25.0808 47.9918L25 50Z" />

<path d="M100 50L25 6.69873" />

<path d="M25 6.69873L25 93.3013" />

<path d="M25 93.3013L100 50" />

<path stroke="red" d="M75 50L74.7388 46.3953L74.1789 43.6455L73.0985 40.4366L71.901 37.9441L69.9052 34.8744L66.9759 31.6474L65.3823 30.2925L62.5 28.3494" />

<path d="M75 50L25 93.3013" />

<path d="M62.5 28.3494L25 93.3013" />

</g>

</svg>

